<svg width="521" height="202" viewBox="0 0 521 202" fill="none" xmlns="http://www.w3.org/2000/svg">
<path d="M203.906 15.6562C203.906 14.4481 202.927 13.4688 201.719 13.4688H152.281C151.073 13.4688 150.094 14.4481 150.094 15.6562V60.7188C150.094 61.9269 151.073 62.9062 152.281 62.9062H193.005C197.262 58.6492 199.649 56.2624 203.906 52.0052V15.6562Z" fill="#1DD0A8"/>
<path d="M150.094 25.7188V60.7188C150.094 61.9269 151.073 62.9062 152.281 62.9062H193.023C197.273 58.6563 199.656 56.2734 203.906 52.0234V25.7188H150.094Z" fill="white"/>
<path d="M192.924 54.1116V62.9063L203.906 51.9241H195.112C193.903 51.9241 192.924 52.9034 192.924 54.1116Z" fill="#1DD0A8"/>
<path d="M162.344 13.1406V11.7188C162.344 10.269 161.169 9.09375 159.719 9.09375C158.269 9.09375 157.094 10.269 157.094 11.7188V17.0781C157.094 18.5279 158.269 19.7031 159.719 19.7031C161.169 19.7031 162.344 18.5279 162.344 17.0781V13.1406Z" fill="white"/>
<path d="M179.611 13.1406V11.7188C179.611 10.269 178.436 9.09375 176.986 9.09375C175.536 9.09375 174.361 10.269 174.361 11.7188V17.0781C174.361 18.5279 175.536 19.7031 176.986 19.7031C178.436 19.7031 179.611 18.5279 179.611 17.0781V13.1406Z" fill="white"/>
<path d="M196.879 13.1406V11.7188C196.879 10.269 195.703 9.09375 194.254 9.09375C192.804 9.09375 191.629 10.269 191.629 11.7188V17.0781C191.629 18.5279 192.804 19.7031 194.254 19.7031C195.703 19.7031 196.879 18.5279 196.879 17.0781V13.1406Z" fill="white"/>
<path d="M199.531 26.8125C199.819 26.8125 200.101 26.6955 200.304 26.4919C200.508 26.2886 200.625 26.0064 200.625 25.7188C200.625 25.4311 200.508 25.1489 200.304 24.9455C200.101 24.742 199.819 24.625 199.531 24.625C199.244 24.625 198.961 24.7419 198.758 24.9455C198.555 25.149 198.438 25.4311 198.438 25.7188C198.438 26.0064 198.554 26.2886 198.758 26.4919C198.961 26.6955 199.244 26.8125 199.531 26.8125Z" fill="black"/>
<path d="M170.492 56.5261H170.476C169.872 56.5261 169.382 57.0159 169.382 57.6199C169.382 58.2238 169.872 58.7136 170.476 58.7136H170.492C171.096 58.7136 171.586 58.2238 171.586 57.6199C171.586 57.0159 171.096 56.5261 170.492 56.5261Z" fill="black"/>
<path d="M205 51.924V15.6562C205 13.847 203.528 12.375 201.719 12.375H197.972V11.7188C197.972 9.66819 196.304 8 194.253 8C192.203 8 190.535 9.66819 190.535 11.7188V12.375H180.705V11.7188C180.705 9.66819 179.037 8 176.986 8C174.936 8 173.267 9.66819 173.267 11.7188V12.375H163.438V11.7188C163.438 9.66819 161.769 8 159.719 8C157.668 8 156 9.66819 156 11.7188V12.375H152.281C150.472 12.375 149 13.847 149 15.6562V60.7188C149 62.528 150.472 64 152.281 64H192.924C193.226 64 193.499 63.8776 193.697 63.6799C193.697 63.6797 193.697 63.6798 193.697 63.6796L204.68 52.6974C204.878 52.4994 205 52.226 205 51.924ZM192.722 11.7188C192.722 10.8744 193.409 10.1875 194.253 10.1875C195.098 10.1875 195.785 10.8744 195.785 11.7188V17.0781C195.785 17.9225 195.098 18.6094 194.253 18.6094C193.409 18.6094 192.722 17.9225 192.722 17.0781V11.7188ZM175.455 11.7188C175.455 10.8744 176.142 10.1875 176.986 10.1875C177.83 10.1875 178.517 10.8744 178.517 11.7188V17.0781C178.517 17.9225 177.83 18.6094 176.986 18.6094C176.142 18.6094 175.455 17.9225 175.455 17.0781V11.7188ZM158.188 11.7188C158.188 10.8744 158.874 10.1875 159.719 10.1875C160.563 10.1875 161.25 10.8744 161.25 11.7188V17.0781C161.25 17.9225 160.563 18.6094 159.719 18.6094C158.874 18.6094 158.188 17.9225 158.188 17.0781V11.7188ZM151.188 60.7188V58.7136H166.117C166.721 58.7136 167.211 58.2238 167.211 57.6198C167.211 57.0159 166.721 56.5261 166.117 56.5261H151.188V26.8125H195.156C195.76 26.8125 196.25 26.3227 196.25 25.7188C196.25 25.1148 195.76 24.625 195.156 24.625H151.188V15.6562C151.188 15.0532 151.678 14.5625 152.281 14.5625H156V17.0781C156 19.1287 157.668 20.7969 159.719 20.7969C161.769 20.7969 163.438 19.1287 163.438 17.0781V14.5625H173.267V17.0781C173.267 19.1287 174.936 20.7969 176.986 20.7969C179.037 20.7969 180.705 19.1287 180.705 17.0781V14.5625H190.535V17.0781C190.535 19.1287 192.203 20.7969 194.253 20.7969C196.304 20.7969 197.972 19.1287 197.972 17.0781V14.5625H201.719C202.322 14.5625 202.812 15.0532 202.812 15.6562V50.8303H195.112C193.302 50.8303 191.83 52.3022 191.83 54.1115V61.8125H152.281C151.678 61.8125 151.188 61.3218 151.188 60.7188ZM194.018 60.2656V54.1114C194.018 53.5083 194.508 53.0177 195.112 53.0177H201.266L194.018 60.2656Z" fill="black"/>
<path d="M170.444 46.3374V42.5625V38.7876C170.444 37.6124 169.488 36.6562 168.313 36.6562H163.576C162.972 36.6562 162.482 37.146 162.482 37.75C162.482 38.354 162.972 38.8438 163.576 38.8438H168.257V41.4688H163.576C162.972 41.4688 162.482 41.9585 162.482 42.5625C162.482 43.1665 162.972 43.6562 163.576 43.6562H168.257V46.2812H163.576C162.972 46.2812 162.482 46.771 162.482 47.375C162.482 47.979 162.972 48.4688 163.576 48.4688H168.313C169.488 48.4688 170.444 47.5126 170.444 46.3374Z" fill="black"/>
<path d="M179.938 38.8438C180.542 38.8438 181.031 38.354 181.031 37.75C181.031 37.146 180.542 36.6562 179.938 36.6562H175.2C174.025 36.6562 173.069 37.6124 173.069 38.7876V42.5625V46.3374C173.069 47.5126 174.025 48.4688 175.2 48.4688H178.9C180.075 48.4688 181.031 47.5126 181.031 46.3374V43.6003C181.031 42.425 180.075 41.4689 178.9 41.4689H177.291H175.256V38.8439H179.938V38.8438ZM177.291 43.6562H178.844V46.2812H175.256V43.6562H177.291Z" fill="black"/>
<path d="M189.488 41.4687H187.638H185.844V38.8437H190.525C191.129 38.8437 191.619 38.354 191.619 37.75C191.619 37.146 191.129 36.6562 190.525 36.6562H185.788C184.613 36.6562 183.657 37.6124 183.657 38.7876V41.5247C183.657 42.7 184.613 43.6561 185.788 43.6561H187.638H189.431V46.2811H184.75C184.146 46.2811 183.656 46.7709 183.656 47.3749C183.656 47.9789 184.146 48.4686 184.75 48.4686H189.488C190.663 48.4686 191.619 47.5125 191.619 46.3372V43.6001C191.619 42.4249 190.663 41.4687 189.488 41.4687Z" fill="black"/>
<g clip-path="url(#clip0)">
<path d="M106.001 64C121.423 64 134.001 51.4219 134.001 35.9999C134.001 20.5782 121.423 8 106.001 8C90.5792 8 78.001 20.5782 78.001 35.9999C78.001 51.4219 90.5792 64 106.001 64Z" fill="#FF757C"/>
<path d="M101.908 47.1146L100.711 51.3638L96.6854 54.4146V55.0683H106H115.315V54.4146L111.29 51.3638L110.092 47.1146L106 47.0603L101.908 47.1146Z" fill="#C8CACC"/>
<path d="M96.6854 54.7415V55.0684H106H115.315V54.7415H96.6854Z" fill="white"/>
<path d="M85.2168 13.7737H126.783C128.149 13.7737 129.266 14.8911 129.266 16.2565V41.8617H82.7341V16.2565C82.7341 14.8911 83.8514 13.7737 85.2168 13.7737Z" fill="#666666"/>
<path d="M84.4199 40.1758H127.58V16.2565C127.58 15.8214 127.218 15.4595 126.783 15.4595H85.2168C84.7818 15.4595 84.4199 15.8214 84.4199 16.2565V40.1758Z" fill="#15BDB1"/>
<path d="M98.0849 41.8618H117.607L102.847 28.1287L95.8773 35.0479L98.0849 41.8618Z" fill="#20D0C2"/>
<path d="M98.0852 41.8618H117.607L115.795 40.1758H97.5389L98.0852 41.8618Z" fill="#807D7D"/>
<path d="M100.754 32.9901C101.678 32.0719 101.668 30.5616 100.729 29.6166C100.095 28.9771 99.1979 28.7603 98.3977 28.9713L97.6188 28.1867C97.5257 28.0931 97.3751 28.0908 97.2836 28.1818L96.056 29.4006C95.9643 29.4916 95.9654 29.6422 96.0583 29.7358L96.7917 30.4744C96.5134 31.304 96.7107 32.2666 97.3804 32.9411C98.3186 33.8864 99.829 33.9081 100.754 32.9901Z" fill="white"/>
<path d="M97.7098 26.4258L95.9345 24.6375C95.3269 24.0252 94.329 24.0219 93.7168 24.6294L92.4447 25.892C91.8325 26.5 91.8289 27.4981 92.4366 28.11L94.2123 29.8987C93.802 31.4786 94.1962 33.3545 95.8776 35.0484L102.848 28.1287C101.166 26.4345 99.2932 26.0269 97.7098 26.4258Z" fill="#FBB429"/>
<path d="M92.4779 25.8591L92.4447 25.8921C91.8325 26.5001 91.8289 27.4981 92.4366 28.1101L94.2123 29.8987C93.802 31.4786 94.1962 33.3545 95.8776 35.0484L96.0895 34.8381C94.5474 33.1346 94.1965 31.2828 94.605 29.7101L92.7407 27.8325C92.2106 27.2985 92.1238 26.485 92.4779 25.8591Z" fill="#F5A209"/>
<path d="M129.266 41.8618V44.5773C129.266 45.9433 128.034 47.0604 126.529 47.0604H85.4711C83.9658 47.0604 82.7341 45.9433 82.7341 44.5773V41.8618H129.266Z" fill="white"/>
<path d="M93.919 26.7703L86.7097 39.262V53.6886H89.1332L88.1131 39.262L94.8457 27.255C95.0946 26.7081 94.2439 26.2908 93.919 26.7703Z" fill="#0E7886"/>
<path d="M78.0011 57.3854H133.999V55.0684H78.0011V57.3854Z" fill="#807D7D"/>
<path d="M96.4201 53.6887H83.7992C82.8678 53.6887 81.7416 55.0976 82.6736 55.0976H97.1706C98.1025 55.0976 97.3518 53.6887 96.4201 53.6887Z" fill="#FBB429"/>
<path d="M87.4113 38.2854C86.8561 38.2854 86.406 38.7354 86.406 39.2906C86.406 39.8459 86.8561 40.2958 87.4113 40.2958C87.9665 40.2958 88.4164 39.8459 88.4164 39.2906C88.4164 38.7354 87.9665 38.2854 87.4113 38.2854Z" fill="#FBB429"/>
<path d="M87.4113 38.7947C87.1373 38.7947 86.9152 39.0168 86.9152 39.2909C86.9152 39.5649 87.1373 39.7869 87.4113 39.7869C87.6854 39.7869 87.9073 39.5649 87.9073 39.2909C87.9073 39.0168 87.6854 38.7947 87.4113 38.7947Z" fill="white"/>
<path d="M94.8658 53.2574L92.272 52.8262V53.6886H94.8658V53.2574Z" fill="#FF5B61"/>
<path d="M102.415 48.2698H107.08C107.341 48.2698 107.555 48.4835 107.555 48.7447V54.5933C107.555 54.8545 107.341 55.0684 107.08 55.0684H102.415C102.154 55.0684 101.94 54.8546 101.94 54.5933V48.7447C101.94 48.4835 102.154 48.2698 102.415 48.2698Z" fill="white"/>
<path d="M107.555 49.6062H108.868C109.302 49.6062 109.657 49.9137 109.657 50.2898V53.5203C109.657 53.8962 109.302 54.204 108.868 54.204H107.555V53.6603H108.868C108.942 53.6603 109.104 53.6118 109.104 53.5203V50.2898C109.104 50.1981 108.942 50.1498 108.868 50.1498H107.555V49.6062Z" fill="#ECF0F1"/>
<path d="M106.915 55.0684V48.2698H107.08C107.341 48.2698 107.555 48.4801 107.555 48.7369V54.601C107.555 54.8583 107.341 55.0684 107.08 55.0684H106.915Z" fill="#ECF0F1"/>
<path d="M103.797 51.4541H105.21V52.7101H103.797V51.4541Z" fill="#20D0C2"/>
<path d="M103.797 51.4541H105.21L105.132 51.1936H103.912L103.797 51.4541Z" fill="#15BDB1"/>
<path d="M104.562 48.2698V51.3182C104.561 51.3595 104.463 51.3615 104.463 51.3182V48.2698H104.562Z" fill="#FBB429"/>
<path d="M82.4851 58.226H129.515V57.3857H82.4851V58.226Z" fill="#666666"/>
<path d="M106 45.1373C106.432 45.1373 106.784 44.7847 106.784 44.3529C106.784 43.9209 106.432 43.5686 106 43.5686C105.568 43.5686 105.216 43.921 105.216 44.3529C105.215 44.7847 105.568 45.1373 106 45.1373Z" fill="#D0D1D4"/>
<path d="M116.979 30.0312C116.642 29.7632 116.217 29.5554 115.843 29.3715C115.619 29.2618 115.407 29.1584 115.254 29.0604C114.896 28.8322 114.635 28.2482 114.672 27.7586C114.688 27.5493 114.767 27.2732 115.054 27.1463C115.36 27.0113 115.59 27.2545 115.665 27.3343C115.825 27.5024 115.964 27.7468 116.047 28.005C116.111 28.1999 116.121 28.3384 116.115 28.4115C116.003 28.3955 115.893 28.4601 115.855 28.5704C115.812 28.6949 115.879 28.8306 116.003 28.8732C116.2 28.9404 116.381 28.8912 116.49 28.7423C116.652 29.2436 116.854 29.7075 117.089 30.1248C117.054 30.0933 117.017 30.0622 116.979 30.0312ZM120.229 38.6577H122.224V38.4485C121.638 38.4107 120.872 37.0991 120.826 36.3901L120.562 32.3296C121.442 32.2205 122.245 31.6849 122.888 30.8538C122.863 30.9528 122.851 31.0547 122.851 31.1595C122.853 31.4852 123.031 31.7624 123.328 31.9016C123.452 31.9593 123.584 31.9877 123.715 31.9877C123.914 31.9877 124.109 31.9219 124.264 31.7943C124.609 31.5101 124.646 31.1547 124.505 30.9508C124.385 30.7782 124.168 30.7346 123.976 30.845C123.862 30.9107 123.823 31.0565 123.888 31.1704C123.93 31.2427 124.004 31.285 124.081 31.2895C124.061 31.3269 124.024 31.3744 123.96 31.4264C123.847 31.5199 123.675 31.5373 123.531 31.4697C123.455 31.4346 123.329 31.3471 123.328 31.1571C123.326 30.8881 123.469 30.649 123.776 30.4046C124.072 30.1688 124.472 29.9728 124.825 29.8C125.061 29.6843 125.284 29.575 125.461 29.4624C125.708 29.3046 125.927 29.0367 126.075 28.7082C126.219 28.3881 126.285 28.0381 126.262 27.7226C126.225 27.2431 125.989 26.8837 125.596 26.71C125.173 26.5232 124.725 26.6633 124.368 27.095C124.355 27.1106 124.343 27.1265 124.33 27.1427C124.39 26.7015 124.423 26.2444 124.425 25.7754H120.229H116.033C116.034 26.2443 116.067 26.7015 116.127 27.1427C116.115 27.1265 116.102 27.1105 116.089 27.095C115.732 26.6634 115.285 26.5232 114.861 26.71C114.468 26.8837 114.232 27.2431 114.196 27.7226C114.172 28.0382 114.238 28.3882 114.383 28.7082C114.531 29.0367 114.749 29.3046 114.997 29.4624C115.173 29.575 115.396 29.6843 115.632 29.8C115.985 29.9729 116.385 30.1688 116.682 30.4046C116.989 30.649 117.132 30.8881 117.13 31.1571C117.129 31.3471 117.002 31.4347 116.927 31.4697C116.783 31.5373 116.61 31.5198 116.497 31.4264C116.434 31.3744 116.397 31.3269 116.376 31.2895C116.454 31.285 116.528 31.2427 116.569 31.1704C116.635 31.0565 116.596 30.9107 116.481 30.845C116.29 30.7346 116.072 30.7781 115.953 30.9508C115.811 31.1548 115.849 31.5103 116.194 31.7943C116.349 31.9219 116.544 31.9877 116.743 31.9877C116.874 31.9877 117.006 31.9593 117.129 31.9016C117.426 31.7624 117.605 31.4852 117.607 31.1595C117.607 31.0547 117.595 30.9528 117.569 30.8538C118.213 31.6849 119.016 32.2205 119.896 32.3296L119.632 36.3901C119.586 37.0991 118.82 38.4106 118.233 38.4485V38.6577H120.229ZM123.48 30.0312C123.441 30.0622 123.405 30.0933 123.37 30.1248C123.604 29.7075 123.806 29.2436 123.969 28.7423C124.078 28.891 124.258 28.9404 124.455 28.8732C124.58 28.8306 124.646 28.6949 124.603 28.5704C124.566 28.4601 124.455 28.3954 124.344 28.4115C124.337 28.3385 124.348 28.2 124.411 28.005C124.495 27.7468 124.634 27.5024 124.793 27.3343C124.869 27.2545 125.099 27.0113 125.404 27.1463C125.691 27.2732 125.771 27.5493 125.787 27.7586C125.824 28.2482 125.563 28.8321 125.205 29.0604C125.051 29.1585 124.839 29.2618 124.616 29.3715C124.241 29.5554 123.816 29.7633 123.48 30.0312Z" fill="#FBB429"/>
<path d="M123.546 25.7755C123.546 25.7755 124.36 31.2861 120.412 32.2596L120.655 36.3829C120.645 37.4798 121.546 38.6579 122.224 38.6579V38.4487C121.638 38.4109 120.872 37.0993 120.826 36.3903L120.562 32.3298C121.437 32.2215 122.236 31.6914 122.877 30.8684C122.881 30.8626 122.885 30.8577 122.888 30.854C122.888 30.854 123.195 30.4936 123.424 30.0773C123.405 30.0931 123.387 30.109 123.369 30.1249C123.436 30.0061 123.5 29.8834 123.562 29.7572C123.767 29.2681 123.968 28.7424 123.968 28.7424C124.09 28.3551 124.251 27.7064 124.33 27.1427C124.391 26.7015 124.423 26.2444 124.425 25.7754H123.546V25.7755Z" fill="#F5A209"/>
<path d="M123.103 42.3043H117.355V39.0801C117.355 38.8474 117.544 38.6577 117.777 38.6577H122.681C122.914 38.6577 123.103 38.8474 123.103 39.0801L123.103 42.3043Z" fill="#666666"/>
<path d="M123.636 42.9555H116.821V42.4104C116.821 42.1989 116.993 42.0269 117.205 42.0269H123.252C123.464 42.0269 123.636 42.1988 123.636 42.4104V42.9555Z" fill="#666666"/>
<path d="M124.528 25.7754H115.93C115.827 25.7754 115.744 25.6918 115.744 25.5886V25.5848C115.744 25.4818 115.827 25.3982 115.93 25.3982H124.528C124.631 25.3982 124.714 25.4818 124.714 25.5848V25.5886C124.714 25.6918 124.631 25.7754 124.528 25.7754Z" fill="#FBB429"/>
<path d="M112.192 46.5955H127.362V47.1073C126.644 48.0228 126.763 49.0411 127.362 49.804V50.3156H112.192C109.822 50.3156 109.822 46.5955 112.192 46.5955Z" fill="#20D0C2"/>
<path d="M127.362 49.8038C126.75 48.9051 126.704 48.0061 127.362 47.1072H112.192C111.478 47.1072 110.893 47.7149 110.893 48.4554C110.893 49.1961 111.479 49.8037 112.192 49.8037H127.362V49.8038Z" fill="white"/>
<path d="M127.217 47.3242C127.261 47.2519 127.309 47.1794 127.362 47.1072H112.192C110.741 47.1072 110.334 49.1865 111.797 49.7391C110.798 49.2529 111.171 47.5949 112.22 47.3242H127.217Z" fill="#ECF0F1"/>
<path d="M127.067 47.5807H111.206C111.236 47.5453 111.266 47.5113 111.299 47.479H127.118C127.1 47.5128 127.083 47.5468 127.067 47.5807ZM111.074 47.7728C111.055 47.8058 111.037 47.8398 111.021 47.8745H126.953C126.964 47.8406 126.975 47.8066 126.987 47.7728H111.074ZM110.949 48.0665C110.939 48.0998 110.93 48.1339 110.923 48.1683H126.887C126.892 48.1343 126.898 48.1005 126.905 48.0665H110.949ZM110.897 48.3601C110.894 48.3916 110.893 48.4234 110.893 48.4553V48.4622H126.867C126.867 48.4282 126.868 48.3944 126.869 48.3602H110.897V48.3601ZM110.908 48.6541C110.912 48.6885 110.919 48.7225 110.926 48.7557H126.891C126.886 48.7219 126.881 48.6882 126.878 48.6541H110.908ZM110.984 48.9478C110.997 48.9824 111.012 49.0164 111.028 49.0495H126.959C126.949 49.0158 126.939 48.9818 126.931 48.9478H110.984ZM111.139 49.2415C111.164 49.2768 111.19 49.3107 111.217 49.3433H127.075C127.059 49.3097 127.044 49.2756 127.029 49.2415H111.139ZM111.418 49.5354C111.466 49.5728 111.517 49.6069 111.57 49.6372H127.242C127.22 49.6037 127.198 49.5696 127.178 49.5354H111.418Z" fill="#ECF0F1"/>
<path d="M128.663 50.3154H111.066V50.9691C111.899 52.1388 111.761 53.44 111.066 54.4147V55.0684H128.663C131.412 55.0685 131.412 50.3154 128.663 50.3154Z" fill="#FF5B61"/>
<path d="M111.066 54.4149C111.776 53.2662 111.83 52.1177 111.066 50.9692H128.663C129.491 50.9692 130.169 51.7459 130.169 52.6922C130.169 53.6384 129.49 54.4149 128.663 54.4149H111.066Z" fill="white"/>
<path d="M111.234 51.2465C111.183 51.1539 111.127 51.0613 111.066 50.969H128.663C130.346 50.969 130.818 53.6259 129.12 54.3321C130.279 53.7105 129.847 51.5922 128.63 51.2465H111.234Z" fill="#ECF0F1"/>
<path d="M111.408 51.5743H129.806C129.772 51.5289 129.736 51.4855 129.698 51.4443H111.349C111.37 51.4874 111.39 51.531 111.408 51.5743ZM129.96 51.8196C129.982 51.8619 130.002 51.9054 130.021 51.9498H111.54C111.528 51.9062 111.515 51.863 111.501 51.8196H129.96ZM130.105 52.1949C130.116 52.2376 130.126 52.2812 130.135 52.3249H111.616C111.611 52.2817 111.604 52.2383 111.596 52.1949H130.105ZM130.165 52.5704C130.168 52.6104 130.169 52.651 130.169 52.692L130.169 52.7005H111.64C111.64 52.6572 111.639 52.6138 111.638 52.5705H130.165V52.5704ZM130.153 52.9456C130.147 52.9895 130.14 53.0329 130.131 53.0757H111.612C111.618 53.0326 111.624 52.989 111.628 52.9456H130.153ZM130.064 53.3211C130.049 53.3654 130.032 53.4086 130.014 53.451H111.533C111.545 53.4079 111.556 53.3647 111.566 53.3211H130.064ZM129.884 53.6964C129.855 53.7415 129.825 53.785 129.793 53.8265H111.399C111.417 53.7834 111.435 53.74 111.452 53.6964H129.884ZM129.561 54.0716C129.505 54.1195 129.446 54.1631 129.385 54.2017H111.205C111.231 54.1589 111.256 54.1157 111.28 54.0716H129.561Z" fill="#ECF0F1"/>
<path d="M125.989 42.8689H114.276V43.3804C114.831 44.2959 114.739 45.3142 114.276 46.0772V46.5887H125.989C127.819 46.5889 127.82 42.8689 125.989 42.8689Z" fill="#FBB429"/>
<path d="M114.276 46.0774C114.749 45.1785 114.784 44.2795 114.276 43.3806H125.99C126.54 43.3806 126.992 43.9885 126.992 44.7292C126.992 45.4698 126.54 46.0774 125.99 46.0774H114.276Z" fill="white"/>
<path d="M114.388 43.5978C114.354 43.5253 114.317 43.4529 114.276 43.3806H125.99C127.11 43.3806 127.424 45.4599 126.294 46.0126C127.066 45.5263 126.777 43.8684 125.968 43.5978H114.388Z" fill="#ECF0F1"/>
<path d="M114.504 43.8546H126.751C126.728 43.8189 126.704 43.7852 126.679 43.7527H114.465C114.479 43.7867 114.492 43.8205 114.504 43.8546ZM126.853 44.0465C126.868 44.0797 126.881 44.1135 126.893 44.1484H114.592C114.584 44.1143 114.575 44.0805 114.566 44.0465H126.853ZM126.949 44.3404C126.957 44.3739 126.964 44.4076 126.969 44.4422H114.642C114.639 44.4082 114.634 44.3744 114.629 44.3404H126.949ZM126.99 44.6341C126.991 44.6654 126.992 44.6974 126.992 44.7293L126.992 44.7359H114.658C114.658 44.7021 114.658 44.668 114.657 44.6341H126.99ZM126.981 44.9279C126.978 44.9623 126.973 44.9961 126.967 45.0296H114.64C114.644 44.9958 114.647 44.9618 114.65 44.9279H126.981ZM126.922 45.2215C126.912 45.2563 126.901 45.2901 126.889 45.3234H114.587C114.595 45.2896 114.602 45.2556 114.609 45.2215H126.922ZM126.802 45.5154C126.784 45.5506 126.763 45.5847 126.742 45.6173H114.498C114.51 45.5836 114.522 45.5496 114.533 45.5154H126.802ZM126.588 45.8093C126.55 45.8467 126.511 45.8807 126.47 45.9109H114.369C114.386 45.8773 114.403 45.8436 114.418 45.8093H126.588Z" fill="#ECF0F1"/>
<path d="M94.3297 26.8105C94.1624 26.8105 94.0267 26.9462 94.0267 27.1136C94.0267 27.2809 94.1624 27.4165 94.3297 27.4165C94.4972 27.4165 94.6328 27.2809 94.6328 27.1136C94.6328 26.9462 94.4972 26.8105 94.3297 26.8105Z" fill="white"/>
</g>
<path d="M61.3036 60.75H9.64734V37.125H20.335L35.4755 22.25L50.6164 37.125H61.3036V60.75Z" fill="#E6BE94"/>
<path d="M40.8195 50.25H30.132V60.75H40.8195V50.25Z" fill="#996459"/>
<path d="M40.5968 46.75H30.3546C30.2316 46.75 30.132 46.8479 30.132 46.9688V50.25H40.8195V46.9688C40.8195 46.8479 40.7198 46.75 40.5968 46.75Z" fill="#4BB9EC"/>
<path d="M43.6958 15.25L45.1474 13.1104C45.3292 12.8421 45.3465 12.4969 45.1917 12.2123C45.0368 11.9277 44.7351 11.75 44.4064 11.75H35.5001C35.0078 11.75 34.6095 12.1413 34.6095 12.625V17.875C34.6095 18.3587 35.0078 18.75 35.5001 18.75H44.4064C44.7351 18.75 45.0369 18.5723 45.1918 18.2877C45.3467 18.0031 45.3292 17.6579 45.1475 17.3896L43.6958 15.25Z" fill="#FF4F19"/>
<path d="M35.5001 23.125C35.0078 23.125 34.6095 22.7337 34.6095 22.25V10.875C34.6095 10.3913 35.0078 10 35.5001 10C35.9924 10 36.3907 10.3913 36.3907 10.875V22.25C36.3907 22.7337 35.9924 23.125 35.5001 23.125Z" fill="#5C546A"/>
<path d="M39.106 26.2901C39.2434 25.9628 39.5687 25.75 39.9289 25.75H56.8507C57.1551 25.75 57.4387 25.9029 57.6022 26.155L63.8366 35.78C64.0114 36.0501 64.0218 36.391 63.8662 36.6712C63.7097 36.9507 63.4104 37.1249 63.0851 37.1249H49.7257C49.4892 37.1249 49.2631 37.0326 49.0961 36.8685L39.2992 27.2435C39.0443 26.9933 38.9677 26.6173 39.106 26.2901Z" fill="#FF4F19"/>
<path d="M31.8697 26.2901C31.7322 25.9627 31.4069 25.75 31.0469 25.75H14.125C13.8206 25.75 13.5371 25.9029 13.3735 26.155L7.13917 35.78C6.96439 36.0501 6.95392 36.391 7.10956 36.6712C7.2662 36.9507 7.56533 37.125 7.89064 37.125H21.25C21.4866 37.125 21.7127 37.0327 21.8797 36.8686L31.6766 27.2436C31.9314 26.9933 32.008 26.6173 31.8697 26.2901Z" fill="#FF4F19"/>
<path d="M50.6284 37.9882C50.4005 37.9882 50.1726 37.9027 49.9987 37.7318L35.4999 23.4874L21.0012 37.7318C20.6533 38.0736 20.0897 38.0736 19.7418 37.7318C19.3939 37.39 19.3939 36.8362 19.7418 36.4944L34.8702 21.6313C35.2181 21.2896 35.7818 21.2896 36.1297 21.6313L51.2582 36.4944C51.6061 36.8362 51.6061 37.39 51.2582 37.7318C51.0841 37.9026 50.8563 37.9882 50.6284 37.9882Z" fill="#E3001E"/>
<path d="M35.5001 42.375C38.4514 42.375 40.8439 40.0245 40.8439 37.125C40.8439 34.2255 38.4514 31.875 35.5001 31.875C32.5489 31.875 30.1564 34.2255 30.1564 37.125C30.1564 40.0245 32.5489 42.375 35.5001 42.375Z" fill="#FFEBB7"/>
<path d="M35.5001 33.625C35.0078 33.625 34.6095 34.0163 34.6095 34.5V36.25H32.8282C32.336 36.25 31.9376 36.6413 31.9376 37.125C31.9376 37.6087 32.336 38 32.8282 38H35.5001C35.9924 38 36.3907 37.6087 36.3907 37.125V34.5C36.3907 34.0163 35.9924 33.625 35.5001 33.625Z" fill="#5C546A"/>
<path d="M48.8351 42.8125C48.8351 41.6043 47.8383 40.625 46.6085 40.625C45.3788 40.625 44.382 41.6043 44.382 42.8125C44.382 42.9623 44.3977 43.1086 44.4268 43.25H44.382V46.75H48.8351V43.25H48.7902C48.8195 43.1086 48.8351 42.9623 48.8351 42.8125Z" fill="#4BB9EC"/>
<path d="M46.6329 39.75C44.9143 39.75 43.5157 41.124 43.5157 42.8125V46.75C43.5157 47.2337 43.9141 47.625 44.4064 47.625H48.8595C49.3518 47.625 49.7501 47.2337 49.7501 46.75V42.8125C49.7501 41.124 48.3516 39.75 46.6329 39.75ZM46.6329 41.5C47.3696 41.5 47.9689 42.0888 47.9689 42.8125V43.25H45.297V42.8125C45.297 42.0888 45.8963 41.5 46.6329 41.5ZM45.297 45.875V45H47.9689V45.875H45.297Z" fill="#7E5C62"/>
<path d="M26.5939 51.125H22.1407V56.375H26.5939V51.125Z" fill="#4BB9EC"/>
<path d="M26.5939 50.25H22.1407C21.6485 50.25 21.2501 50.6413 21.2501 51.125V56.375C21.2501 56.8587 21.6485 57.25 22.1407 57.25H26.5939C27.0862 57.25 27.4845 56.8587 27.4845 56.375V51.125C27.4845 50.6413 27.0862 50.25 26.5939 50.25ZM25.7032 52V52.875H23.0314V52H25.7032ZM23.0314 55.5V54.625H25.7032V55.5H23.0314Z" fill="#7E5C62"/>
<path d="M18.5536 51.125H14.1005V56.375H18.5536V51.125Z" fill="#4BB9EC"/>
<path d="M18.5536 50.25H14.1005C13.6082 50.25 13.2098 50.6413 13.2098 51.125V56.375C13.2098 56.8587 13.6082 57.25 14.1005 57.25H18.5536C19.0459 57.25 19.4442 56.8587 19.4442 56.375V51.125C19.4442 50.6413 19.0459 50.25 18.5536 50.25ZM17.663 52V52.875H14.9911V52H17.663ZM14.9911 55.5V54.625H17.663V55.5H14.9911Z" fill="#7E5C62"/>
<path d="M56.8751 51.125H52.422V56.375H56.8751V51.125Z" fill="#4BB9EC"/>
<path d="M56.8751 50.25H52.422C51.9297 50.25 51.5314 50.6413 51.5314 51.125V56.375C51.5314 56.8587 51.9297 57.25 52.422 57.25H56.8751C57.3674 57.25 57.7657 56.8587 57.7657 56.375V51.125C57.7657 50.6413 57.3674 50.25 56.8751 50.25ZM55.9845 52V52.875H53.3126V52H55.9845ZM53.3126 55.5V54.625H55.9845V55.5H53.3126Z" fill="#7E5C62"/>
<path d="M48.8351 51.125H44.382V56.375H48.8351V51.125Z" fill="#4BB9EC"/>
<path d="M48.8351 50.25H44.382C43.8897 50.25 43.4913 50.6413 43.4913 51.125V56.375C43.4913 56.8587 43.8897 57.25 44.382 57.25H48.8351C49.3274 57.25 49.7257 56.8587 49.7257 56.375V51.125C49.7257 50.6413 49.3274 50.25 48.8351 50.25ZM47.9445 52V52.875H45.2726V52H47.9445ZM45.2726 55.5V54.625H47.9445V55.5H45.2726Z" fill="#7E5C62"/>
<path d="M56.8262 42.8125C56.8262 41.6043 55.8293 40.625 54.5996 40.625C53.3699 40.625 52.373 41.6043 52.373 42.8125C52.373 42.9623 52.3887 43.1086 52.4179 43.25H52.373V46.75H56.8262V43.25H56.7813C56.8105 43.1086 56.8262 42.9623 56.8262 42.8125Z" fill="#4BB9EC"/>
<path d="M54.6241 39.75C52.9055 39.75 51.507 41.124 51.507 42.8125V46.75C51.507 47.2337 51.9053 47.625 52.3976 47.625H56.8507C57.343 47.625 57.7413 47.2337 57.7413 46.75V42.8125C57.7413 41.124 56.3428 39.75 54.6241 39.75ZM54.6241 41.5C55.3608 41.5 55.9601 42.0888 55.9601 42.8125V43.25H53.2882V42.8125C53.2882 42.0888 53.8875 41.5 54.6241 41.5ZM53.2882 45.875V45H55.9601V45.875H53.2882Z" fill="#7E5C62"/>
<path d="M18.5293 42.8125C18.5293 41.6043 17.5325 40.625 16.3027 40.625C15.073 40.625 14.0762 41.6043 14.0762 42.8125C14.0762 42.9623 14.0919 43.1086 14.121 43.25H14.0762V46.75H18.5293V43.25H18.4844C18.5136 43.1086 18.5293 42.9623 18.5293 42.8125Z" fill="#4BB9EC"/>
<path d="M16.327 39.75C14.6083 39.75 13.2098 41.124 13.2098 42.8125V46.75C13.2098 47.2337 13.6082 47.625 14.1005 47.625H18.5536C19.0459 47.625 19.4442 47.2337 19.4442 46.75V42.8125C19.4442 41.124 18.0457 39.75 16.327 39.75ZM16.327 41.5C17.0637 41.5 17.663 42.0888 17.663 42.8125V43.25H14.9911V42.8125C14.9911 42.0888 15.5904 41.5 16.327 41.5ZM14.9911 45.875V45H17.663V45.875H14.9911Z" fill="#7E5C62"/>
<path d="M26.5205 42.8125C26.5205 41.6043 25.5237 40.625 24.2939 40.625C23.0642 40.625 22.0674 41.6043 22.0674 42.8125C22.0674 42.9623 22.0831 43.1086 22.1122 43.25H22.0674V46.75H26.5205V43.25H26.4756C26.5048 43.1086 26.5205 42.9623 26.5205 42.8125Z" fill="#4BB9EC"/>
<path d="M24.3184 39.75C22.5997 39.75 21.2012 41.124 21.2012 42.8125V46.75C21.2012 47.2337 21.5995 47.625 22.0918 47.625H26.5449C27.0372 47.625 27.4355 47.2337 27.4355 46.75V42.8125C27.4355 41.124 26.0369 39.75 24.3184 39.75ZM24.3184 41.5C25.055 41.5 25.6543 42.0888 25.6543 42.8125V43.25H22.9824V42.8125C22.9824 42.0888 23.5816 41.5 24.3184 41.5ZM22.9824 45.875V45H25.6543V45.875H22.9824Z" fill="#7E5C62"/>
<path d="M35.5001 43.25C32.0624 43.25 29.2657 40.5024 29.2657 37.125C29.2657 33.7476 32.0624 31 35.5001 31C38.9378 31 41.7345 33.7476 41.7345 37.125C41.7345 40.5024 38.9378 43.25 35.5001 43.25ZM35.5001 32.75C33.0448 32.75 31.047 34.7125 31.047 37.125C31.047 39.5375 33.0448 41.5 35.5001 41.5C37.9555 41.5 39.9532 39.5375 39.9532 37.125C39.9532 34.7125 37.9555 32.75 35.5001 32.75Z" fill="#7E5C62"/>
<path d="M39.0626 45.875H31.9376C30.4643 45.875 29.2657 47.0525 29.2657 48.5V60.75C29.2657 61.2337 29.6641 61.625 30.1564 61.625C30.6487 61.625 31.047 61.2337 31.047 60.75V51.125H34.5851V60.75H36.3664V51.125H39.9532V60.75C39.9532 61.2337 40.3516 61.625 40.8439 61.625C41.3362 61.625 41.7345 61.2337 41.7345 60.75V48.5C41.7345 47.0525 40.5359 45.875 39.0626 45.875ZM39.9532 49.375H31.047V48.5C31.047 48.0172 31.4462 47.625 31.9376 47.625H39.0626C39.554 47.625 39.9532 48.0172 39.9532 48.5V49.375Z" fill="#7E5C62"/>
<path d="M63.1095 61.625H7.89075C7.39845 61.625 7.00012 61.2337 7.00012 60.75C7.00012 60.2663 7.39845 59.875 7.89075 59.875H63.1095C63.6018 59.875 64.0001 60.2663 64.0001 60.75C64.0001 61.2337 63.6018 61.625 63.1095 61.625Z" fill="#5C546A"/>
<path fill-rule="evenodd" clip-rule="evenodd" d="M84.6435 132.519C87.3662 135.086 90.24 137.501 92.6821 140.326C93.7608 141.582 94.7821 142.878 95.5634 144.335C96.6705 146.407 95.6678 148.686 93.7441 148.81L81.7861 148.805C78.702 149.052 76.2416 147.853 74.1728 145.817C72.5172 144.188 70.984 142.455 69.3921 140.772C68.7394 140.084 68.0563 139.437 67.2402 138.925C65.6078 137.902 64.1909 138.215 63.258 139.859C62.3079 141.531 62.0924 143.383 61.9991 145.246C61.871 147.965 61.0199 148.68 58.1914 148.804C52.1466 149.08 46.4098 148.197 41.0805 145.252C36.382 142.657 32.7385 138.992 29.5672 134.844C23.3927 126.766 18.6643 117.889 14.4145 108.764C13.458 106.708 14.1575 105.605 16.5068 105.566C20.4078 105.492 24.3083 105.498 28.2139 105.56C29.7994 105.583 30.8491 106.461 31.4613 107.907C33.5718 112.918 36.1544 117.686 39.396 122.105C40.2593 123.281 41.1396 124.458 42.3931 125.286C43.7798 126.203 44.8356 125.899 45.488 124.407C45.902 123.461 46.0832 122.443 46.1765 121.43C46.4856 117.945 46.5263 114.466 45.9842 110.993C45.6514 108.826 44.3871 107.422 42.1474 107.012C41.0044 106.803 41.1746 106.393 41.728 105.763C42.6892 104.676 43.5932 104 45.3952 104H58.9096C61.0371 104.405 61.5096 105.328 61.8009 107.395L61.8125 121.89C61.7893 122.691 62.2265 125.065 63.7192 125.595C64.9139 125.972 65.7014 125.049 66.4182 124.318C69.6539 121.002 71.9633 117.083 74.0264 113.025C74.942 111.241 75.7292 109.388 76.4922 107.536C77.0574 106.162 77.9444 105.486 79.5472 105.516L92.554 105.527C92.9396 105.527 93.3299 105.533 93.7034 105.594C95.8951 105.955 96.4957 106.865 95.8188 108.932C94.7522 112.174 92.6769 114.876 90.6478 117.591C88.4787 120.489 86.1589 123.288 84.0078 126.203C82.0315 128.865 82.1885 130.207 84.6435 132.519Z" fill="white"/>
<path d="M306.115 143.505C306.246 144.483 305.939 145.333 305.194 146.056L296.444 154.473C296.049 154.898 295.534 155.259 294.898 155.557C294.262 155.854 293.637 156.046 293.023 156.131C292.98 156.131 292.848 156.142 292.628 156.163C292.409 156.184 292.124 156.195 291.773 156.195C290.94 156.195 289.591 156.057 287.727 155.78C285.863 155.504 283.583 154.824 280.885 153.74C278.188 152.656 275.129 151.029 271.708 148.862C268.287 146.694 264.647 143.718 260.787 139.934C257.717 137.001 255.173 134.196 253.156 131.518C251.138 128.839 249.515 126.363 248.287 124.089C247.059 121.814 246.138 119.753 245.524 117.903C244.91 116.054 244.493 114.46 244.274 113.121C244.055 111.782 243.967 110.73 244.011 109.965C244.055 109.199 244.077 108.774 244.077 108.689C244.164 108.094 244.362 107.488 244.669 106.872C244.976 106.256 245.349 105.756 245.787 105.374L254.537 96.8927C255.151 96.2976 255.853 96 256.642 96C257.212 96 257.717 96.1594 258.155 96.4782C258.594 96.7971 258.967 97.1903 259.274 97.6579L266.313 110.602C266.708 111.282 266.817 112.026 266.642 112.834C266.467 113.642 266.094 114.322 265.524 114.875L262.3 117.999C262.212 118.084 262.136 118.222 262.07 118.414C262.004 118.605 261.971 118.764 261.971 118.892C262.147 119.785 262.541 120.805 263.155 121.953C263.682 122.973 264.493 124.216 265.589 125.683C266.686 127.149 268.243 128.839 270.26 130.752C272.234 132.708 273.988 134.227 275.523 135.312C277.058 136.395 278.341 137.193 279.372 137.703C280.403 138.213 281.192 138.521 281.74 138.627L282.562 138.787C282.65 138.787 282.793 138.755 282.99 138.691C283.188 138.627 283.33 138.553 283.418 138.468L287.168 134.769C287.958 134.089 288.878 133.749 289.931 133.749C290.677 133.749 291.269 133.876 291.707 134.132H291.773L304.47 141.401C305.391 141.954 305.939 142.655 306.115 143.505Z" fill="white"/>
<path d="M177.88 97H151.343C142.332 97 135 104.08 135 112.781V138.404C135 147.106 142.332 154.185 151.343 154.185H177.88C186.892 154.185 194.224 147.106 194.224 138.404V112.781C194.224 104.08 186.892 97 177.88 97ZM188.97 138.404C188.97 144.308 183.995 149.111 177.88 149.111H151.343C145.229 149.112 140.255 144.308 140.255 138.404V112.781C140.255 106.877 145.229 102.074 151.343 102.074H177.88C183.995 102.074 188.969 106.877 188.969 112.781V138.404H188.97Z" fill="white"/>
<path d="M164.612 110.858C156.197 110.858 149.351 117.468 149.351 125.593C149.351 133.718 156.197 140.328 164.612 140.328C173.027 140.328 179.872 133.718 179.872 125.593C179.872 117.468 173.027 110.858 164.612 110.858ZM164.612 135.253C159.095 135.253 154.606 130.92 154.606 125.593C154.606 120.265 159.095 115.931 164.612 115.931C170.129 115.931 174.618 120.265 174.618 125.593C174.618 130.92 170.129 135.253 164.612 135.253Z" fill="white"/>
<path d="M180.513 106.556C179.5 106.556 178.506 106.951 177.791 107.645C177.072 108.335 176.659 109.295 176.659 110.276C176.659 111.254 177.073 112.215 177.791 112.908C178.505 113.598 179.5 113.997 180.513 113.997C181.528 113.997 182.52 113.598 183.238 112.908C183.956 112.215 184.366 111.254 184.366 110.276C184.366 109.295 183.956 108.335 183.238 107.645C182.523 106.951 181.528 106.556 180.513 106.556Z" fill="white"/>
<path d="M416.176 156.696C417.859 156.696 419.317 156.123 420.557 154.991L399.347 133.104C398.838 133.48 398.345 133.846 397.879 134.193C396.292 135.4 395.004 136.342 394.015 137.016C393.026 137.693 391.71 138.382 390.067 139.086C388.423 139.79 386.892 140.142 385.471 140.142H385.43H385.388C383.968 140.142 382.436 139.791 380.793 139.086C379.149 138.382 377.833 137.693 376.845 137.016C375.856 136.342 374.568 135.4 372.98 134.193C372.538 133.859 372.047 133.491 371.517 133.098L350.303 154.991C351.543 156.123 353.002 156.696 354.684 156.696H416.176Z" fill="white"/>
<path d="M352.22 119.322C350.633 118.23 349.225 116.98 348 115.571V148.87L366.694 129.58C362.954 126.886 358.135 123.47 352.22 119.322Z" fill="white"/>
<path d="M418.683 119.322C412.993 123.296 408.157 126.717 404.174 129.588L422.861 148.871V115.571C421.663 116.951 420.27 118.201 418.683 119.322Z" fill="white"/>
<path d="M416.177 96H354.685C352.54 96 350.891 96.7475 349.735 98.2411C348.579 99.7353 348.002 101.604 348.002 103.845C348.002 105.655 348.768 107.617 350.299 109.73C351.83 111.842 353.46 113.501 355.187 114.708C356.133 115.398 358.988 117.446 363.751 120.851C366.322 122.69 368.558 124.292 370.479 125.675C372.117 126.853 373.529 127.872 374.696 128.719C374.829 128.816 375.04 128.971 375.319 129.177C375.62 129.4 376.001 129.684 376.471 130.034C377.376 130.709 378.128 131.255 378.727 131.672C379.325 132.09 380.05 132.556 380.9 133.073C381.749 133.59 382.55 133.979 383.302 134.237C384.054 134.495 384.75 134.625 385.391 134.625H385.432H385.474C386.114 134.625 386.81 134.495 387.563 134.237C388.314 133.979 389.115 133.591 389.965 133.073C390.814 132.556 391.537 132.089 392.137 131.672C392.736 131.255 393.488 130.709 394.393 130.034C394.862 129.684 395.243 129.4 395.544 129.178C395.824 128.971 396.034 128.817 396.169 128.719C397.077 128.066 398.493 127.051 400.396 125.687C403.86 123.204 408.96 119.549 415.72 114.708C417.753 113.243 419.451 111.475 420.816 109.406C422.178 107.338 422.862 105.168 422.862 102.898C422.862 101.001 422.199 99.3775 420.878 98.0256C419.554 96.6754 417.987 96 416.177 96Z" fill="white"/>
<defs>
<clipPath id="clip0">
<rect width="56" height="56" fill="white" transform="translate(78 8)"/>
</clipPath>
</defs>
</svg>
